<svg xmlns="http://www.w3.org/2000/svg" viewBox="0 0 2800 1700">
<g transform="translate(0.000000,1700.000000) scale(0.100000,-0.100000)" fill="#1F4317">
<path d="M5518 12410 c-348 -59 -635 -327 -718 -671 -19 -82 -20 -115 -20
-1814 0 -1115 -4 -1762 -10 -1819 -12 -104 -44 -203 -92 -284 -50 -85 -179
-210 -263 -254 -81 -42 -191 -78 -244 -79 -27 -1 -18 -4 34 -14 272 -51 477
-244 553 -519 15 -56 17 -240 22 -2228 l5 -2167 1047 1012 1047 1012 1 3918 0
3917 -657 -1 c-362 -1 -679 -5 -705 -9z m522 -1685 l0 -915 -210 0 -210 0 0
915 0 915 210 0 210 0 0 -915z m-5 -2505 l0 -915 -205 0 -205 0 -3 905 c-1
498 0 911 3 918 3 10 51 12 207 10 l203 -3 0 -915z m3 -2507 l2 -913 -210 0
-210 0 0 908 c0 500 3 912 7 916 4 3 97 5 207 4 l201 -3 3 -912z M7630 9134 l0 -3286 108 103 c60 57 534 511 1055 1008 l947 905 0
2278 0 2278 -1055 0 -1055 0 0 -3286z m1260 1591 l0 -915 -205 0 -205 0 0 915
0 915 205 0 205 0 0 -915z m-5 -2285 l0 -695 -202 -3 -203 -2 0 700 0 700 203
-2 202 -3 0 -695z M18150 10142 l0 -2279 952 -909 c524 -500 999 -953 1055 -1008 l103
-99 0 3287 0 3286 -1055 0 -1055 0 0 -2278z m1260 583 l0 -915 -205 0 -205 0
0 915 0 915 205 0 205 0 0 -915z m0 -2285 l0 -700 -202 2 -203 3 -3 685 c-1
377 0 691 3 698 3 9 54 12 205 12 l200 0 0 -700z M21010 8503 l1 -3918 1047 -1012 1047 -1012 5 2172 5 2172 25 80 c73
231 246 404 474 474 37 12 82 21 100 22 21 1 9 5 -34 14 -152 31 -249 84 -360
195 -69 68 -94 102 -127 170 -84 172 -77 -19 -83 2025 l-5 1820 -28 85 c-109
326 -362 553 -686 614 -71 14 -182 16 -732 16 l-649 0 0 -3917z m1260 2222 l0
-915 -210 0 -210 0 0 915 0 915 210 0 210 0 0 -915z m-5 -2505 l0 -915 -205 0
-205 0 -3 905 c-1 498 0 911 3 918 3 10 51 12 207 10 l203 -3 0 -915z m3
-2507 l2 -913 -210 0 -210 0 0 908 c0 500 3 912 7 916 4 3 97 5 207 4 l201 -3
3 -912z"/>
</g>
<g transform="translate(0.000000,1700.000000) scale(0.100000,-0.100000)" fill="#728E4C">
<path d="M12520 15863 c-338 -35 -659 -217 -866 -492 -128 -170 -198 -341
-240 -580 -38 -219 -96 -338 -251 -513 -107 -122 -243 -218 -355 -252 -18 -6
-7 -11 47 -22 229 -47 433 -230 510 -455 25 -74 29 -102 33 -231 l4 -148 2064
0 2063 0 3 223 3 223 33 66 c37 77 90 128 172 167 l55 26 774 3 c857 3 832 4
927 -61 65 -45 120 -118 144 -192 22 -71 23 -60 10 134 -27 398 -175 736 -444
1018 -233 245 -521 404 -856 474 -85 17 -155 23 -365 28 -252 6 -262 7 -316
33 -90 41 -131 86 -191 206 -92 185 -231 299 -413 337 -60 12 -251 14 -1290
13 -671 -1 -1236 -3 -1255 -5z m1869 -583 c115 -22 211 -92 262 -193 60 -117
58 -229 -3 -355 -36 -74 -69 -104 -158 -146 -58 -28 -75 -31 -160 -31 -82 0
-103 4 -150 26 -82 39 -144 99 -182 177 -30 61 -33 74 -33 162 0 85 3 102 31
160 17 36 42 79 57 95 32 39 124 86 197 101 71 16 77 16 139 4z M10480 11383 l0 -1038 1035 1035 c569 569 1035 1036 1035 1037 0 2
-466 3 -1035 3 l-1035 0 0 -1037z M16370 11385 c569 -569 1036 -1035 1037 -1035 2 0 3 466 3 1035 l0
1035 -1037 0 -1038 0 1035 -1035z M18150 7856 c0 -2 8 -10 18 -17 15 -13 16 -12 3 4 -13 16 -21 21 -21
13z M9519 7653 l-24 -28 28 24 c15 14 27 26 27 28 0 8 -8 1 -31 -24z M18370 7645 c13 -14 26 -25 28 -25 3 0 -5 11 -18 25 -13 14 -26 25
-28 25 -3 0 5 -11 18 -25z M9299 7443 l-24 -28 28 24 c15 14 27 26 27 28 0 8 -8 1 -31 -24z M18595 7430 c10 -11 20 -20 23 -20 3 0 -3 9 -13 20 -10 11 -20 20
-23 20 -3 0 3 -9 13 -20z M10480 6640 c0 -843 1 -822 -76 -980 -38 -78 -62 -110 -128 -176
-108 -107 -212 -163 -371 -200 -27 -6 -23 -8 35 -20 36 -7 108 -35 160 -60
134 -66 238 -171 304 -304 75 -153 76 -157 76 -800 l0 -565 568 -466 c312
-257 647 -533 745 -613 l177 -146 0 1792 0 1793 -745 745 -745 745 0 -745z M16663 6638 l-743 -743 0 -1790 0 -1790 745 745 745 745 0 436 c0
401 2 442 20 513 65 254 273 458 523 510 57 12 59 14 32 21 -176 41 -254 83
-370 200 -71 70 -99 107 -129 168 -74 151 -70 97 -76 955 l-5 772 -742 -742z M9069 7223 l-24 -28 28 24 c15 14 27 26 27 28 0 8 -8 1 -31 -24z M18820 7215 c13 -14 26 -25 28 -25 3 0 -5 11 -18 25 -13 14 -26 25
-28 25 -3 0 5 -11 18 -25z M8859 7023 c-13 -16 -12 -17 4 -4 9 7 17 15 17 17 0 8 -8 3 -21 -13z M19040 7005 c13 -14 26 -25 28 -25 3 0 -5 11 -18 25 -13 14 -26 25
-28 25 -3 0 5 -11 18 -25z M8624 6798 l-19 -23 23 19 c21 18 27 26 19 26 -2 0 -12 -10 -23 -22z M19265 6790 c10 -11 20 -20 23 -20 3 0 -3 9 -13 20 -10 11 -20 20
-23 20 -3 0 3 -9 13 -20z M8399 6583 l-24 -28 28 24 c15 14 27 26 27 28 0 8 -8 1 -31 -24z M19490 6575 c13 -14 26 -25 28 -25 3 0 -5 11 -18 25 -13 14 -26 25
-28 25 -3 0 5 -11 18 -25z M19710 6365 c13 -14 26 -25 28 -25 3 0 -5 11 -18 25 -13 14 -26 25
-28 25 -3 0 5 -11 18 -25z M8169 6363 c-13 -16 -12 -17 4 -4 16 13 21 21 13 21 -2 0 -10 -8 -17
-17z M7949 6153 l-24 -28 28 24 c15 14 27 26 27 28 0 8 -8 1 -31 -24z M19930 6155 c13 -14 26 -25 28 -25 3 0 -5 11 -18 25 -13 14 -26 25
-28 25 -3 0 5 -11 18 -25z M7729 5943 l-24 -28 28 24 c15 14 27 26 27 28 0 8 -8 1 -31 -24z M20160 5935 c13 -14 26 -25 28 -25 3 0 -5 11 -18 25 -13 14 -26 25
-28 25 -3 0 5 -11 18 -25z M12590 3273 l0 -2002 671 -608 c370 -334 677 -608 684 -608 6 0 314
274 683 609 l672 608 0 2002 0 2001 -673 -673 c-369 -369 -677 -672 -682 -672
-5 0 -313 303 -682 672 l-673 673 0 -2002z M6679 4393 l-34 -38 38 34 c34 33 42 41 34 41 -2 0 -19 -17 -38 -37z M21200 4395 c19 -19 36 -35 39 -35 3 0 -10 16 -29 35 -19 19 -36 35
-39 35 -3 0 10 -16 29 -35z M6379 4103 l-34 -38 38 34 c34 33 42 41 34 41 -2 0 -19 -17 -38 -37z M21510 4095 c19 -19 36 -35 39 -35 3 0 -10 16 -29 35 -19 19 -36 35
-39 35 -3 0 10 -16 29 -35z M6069 3803 l-34 -38 38 34 c34 33 42 41 34 41 -2 0 -19 -17 -38 -37z M21820 3795 c19 -19 36 -35 39 -35 3 0 -10 16 -29 35 -19 19 -36 35
-39 35 -3 0 10 -16 29 -35z M5769 3513 l-34 -38 38 34 c34 33 42 41 34 41 -2 0 -19 -17 -38 -37z M22130 3495 c19 -19 36 -35 39 -35 3 0 -10 16 -29 35 -19 19 -36 35
-39 35 -3 0 10 -16 29 -35z M5459 3213 l-34 -38 38 34 c34 33 42 41 34 41 -2 0 -19 -17 -38 -37z M22410 3227 c0 -2 15 -16 33 -33 l32 -29 -29 33 c-28 30 -36 37 -36
29z M5159 2923 l-34 -38 38 34 c34 33 42 41 34 41 -2 0 -19 -17 -38 -37z M22740 2905 c19 -19 36 -35 39 -35 3 0 -10 16 -29 35 -19 19 -36 35
-39 35 -3 0 10 -16 29 -35z M4849 2623 l-34 -38 38 34 c20 19 37 36 37 38 0 8 -8 0 -41 -34z M23050 2605 c19 -19 36 -35 39 -35 3 0 -10 16 -29 35 -19 19 -36 35
-39 35 -3 0 10 -16 29 -35z"/>
</g>
<g transform="translate(0.000000,1700.000000) scale(0.100000,-0.100000)" fill="#504D20">
<path d="M13600 11238 c0 -288 -3 -588 -7 -666 l-6 -144 -329 329 -328 328
-242 -243 -243 -242 585 -586 c364 -364 607 -601 644 -625 154 -102 371 -107
533 -14 29 17 187 166 396 374 l347 346 115 -115 c63 -63 115 -119 115 -125 0
-5 -157 -167 -349 -360 -370 -371 -382 -387 -416 -516 -29 -109 -12 -261 42
-363 20 -38 183 -208 632 -659 l606 -607 242 242 243 243 -327 327 c-180 180
-325 329 -322 332 2 3 300 8 662 12 l657 7 0 347 0 346 -162 -3 c-356 -7
-1178 -9 -1178 -4 0 3 151 157 335 341 l335 335 -607 607 -608 608 -339 -338
-338 -337 6 666 6 666 -83 6 c-45 4 -202 7 -349 7 l-268 0 0 -522z M11952 10107 l-242 -242 325 -325 c179 -179 325 -328 325 -332 0 -5
-128 -8 -283 -8 -156 0 -453 -3 -660 -7 l-377 -6 0 -345 0 -345 672 6 673 7
-340 -340 -340 -340 608 -607 607 -608 341 340 341 340 -7 -671 -6 -671 341
-8 c188 -4 344 -4 348 0 4 4 10 302 13 663 3 361 7 659 7 662 1 3 151 -144
332 -325 l330 -330 243 243 242 242 -605 604 c-576 576 -608 606 -678 640
-144 68 -290 70 -437 4 -65 -30 -93 -55 -428 -387 l-357 -355 -120 119 -120
120 339 340 c186 187 352 360 368 385 59 88 77 153 77 275 0 122 -17 187 -73
273 -17 26 -297 314 -623 640 l-593 592 -243 -243z"/>
</g>
</svg>